<svg xmlns="http://www.w3.org/2000/svg" xmlns:xlink="http://www.w3.org/1999/xlink" viewBox="0 0 512 512" width="512" height="512" preserveAspectRatio="xMidYMid meet" style="width: 100%; height: 100%; transform: translate3d(0px, 0px, 0px); content-visibility: visible;"><defs><clipPath id="__lottie_element_642"><rect width="512" height="512" x="0" y="0"/></clipPath><linearGradient id="__lottie_element_681" spreadMethod="pad" gradientUnits="userSpaceOnUse" x1="4.646999835968018" y1="42.04100036621094" x2="7.255000114440918" y2="-121.43099975585938"><stop offset="9%" stop-color="rgb(228,0,0)" stop-opacity="1"/><stop offset="55%" stop-color="rgb(242,128,128)" stop-opacity="1"/><stop offset="100%" stop-color="rgb(255,255,255)" stop-opacity="1"/></linearGradient><linearGradient id="__lottie_element_682" spreadMethod="pad" gradientUnits="userSpaceOnUse" x1="-0.3529999852180481" y1="-44.95899963378906" x2="11.437999725341797" y2="43.75899887084961"><stop offset="0%" stop-color="rgb(255,255,255)" stop-opacity="1"/><stop offset="50%" stop-color="rgb(255,255,255)" stop-opacity="0.5"/><stop offset="100%" stop-color="rgb(255,255,255)" stop-opacity="0"/></linearGradient></defs><g clip-path="url(#__lottie_element_642)"><g transform="matrix(0.7988079190254211,0.0744360014796257,-0.0752752497792244,0.7942325472831726,275.53411865234375,271.61920166015625)" opacity="1" style="display: block;"><g opacity="1" transform="matrix(1,0,0,1,0,0)"><g opacity="1" transform="matrix(1,0,0,1,0,0)"><path fill="rgb(255,93,31)" fill-opacity="1" d=" M40.45000076293945,137.25399780273438 C81.93199920654297,133.51699829101562 142.6719207763672,159.03468322753906 174.8109130859375,173.60968017578125 C206.94992065429688,188.18467712402344 214.7822265625,172.75161743164062 230.10842895507812,102.14618682861328 C242.41488647460938,44.81283187866211 203.85150146484375,50.07846450805664 190.49542236328125,76.73418426513672 C181.08363342285156,95.59617614746094 178.41554260253906,133.81065368652344 178.41554260253906,133.81065368652344 C124.2275390625,105.40865325927734 50.232540130615234,111.76165008544922 50.232540130615234,111.76165008544922"/><path stroke-linecap="round" stroke-linejoin="round" fill-opacity="0" stroke="rgb(207,53,2)" stroke-opacity="1" stroke-width="12.5" d=" M40.45000076293945,137.25399780273438 C81.93199920654297,133.51699829101562 142.6719207763672,159.03468322753906 174.8109130859375,173.60968017578125 C206.94992065429688,188.18467712402344 214.7822265625,172.75161743164062 230.10842895507812,102.14618682861328 C242.41488647460938,44.81283187866211 203.85150146484375,50.07846450805664 190.49542236328125,76.73418426513672 C181.08363342285156,95.59617614746094 178.41554260253906,133.81065368652344 178.41554260253906,133.81065368652344 C124.2275390625,105.40865325927734 50.232540130615234,111.76165008544922 50.232540130615234,111.76165008544922"/><path stroke-linecap="round" stroke-linejoin="round" fill-opacity="0" stroke="rgb(207,53,2)" stroke-opacity="1" stroke-width="12.5" d=" M40.45000076293945,137.25399780273438 C81.93199920654297,133.51699829101562 142.6719207763672,159.03468322753906 174.8109130859375,173.60968017578125 C206.94992065429688,188.18467712402344 214.7822265625,172.75161743164062 230.10842895507812,102.14618682861328 C242.41488647460938,44.81283187866211 203.85150146484375,50.07846450805664 190.49542236328125,76.73418426513672 C181.08363342285156,95.59617614746094 178.41554260253906,133.81065368652344 178.41554260253906,133.81065368652344 C124.2275390625,105.40865325927734 50.232540130615234,111.76165008544922 50.232540130615234,111.76165008544922"/></g></g></g><g transform="matrix(1.0020536184310913,-0.04223547875881195,0.0419875867664814,0.9961722493171692,212.8177490234375,321.2884216308594)" opacity="1" style="display: block;"><g opacity="1" transform="matrix(1,0,0,1,0,0)"><path fill="rgb(255,212,39)" fill-opacity="1" d=" M-95.9708480834961,-101.1789321899414 C-117.44791412353516,-71.49696350097656 -135.39244079589844,-5.25078010559082 -138.3514404296875,24.459348678588867 C-146.33950805664062,23.378643035888672 -152.84603881835938,27.87843894958496 -155.8350372314453,36.740440368652344 C-160.21104431152344,49.71543884277344 -152.802001953125,88.31099700927734 -85.86499786376953,101.51399993896484 C26.790000915527344,123.73500061035156 116.49312591552734,117.04660034179688 144.79412841796875,67.05359649658203 C156.36712646484375,46.60960006713867 156.1699981689453,17.445999145507812 146.57899475097656,-11.802000045776367 C132.46099853515625,-54.856998443603516 108.83000183105469,-90.88899993896484 88.74600219726562,-112.44400024414062"/><path stroke-linecap="round" stroke-linejoin="round" fill-opacity="0" stroke="rgb(249,144,21)" stroke-opacity="1" stroke-width="10" d=" M-95.9708480834961,-101.1789321899414 C-117.44791412353516,-71.49696350097656 -135.39244079589844,-5.25078010559082 -138.3514404296875,24.459348678588867 C-146.33950805664062,23.378643035888672 -152.84603881835938,27.87843894958496 -155.8350372314453,36.740440368652344 C-160.21104431152344,49.71543884277344 -152.802001953125,88.31099700927734 -85.86499786376953,101.51399993896484 C26.790000915527344,123.73500061035156 116.49312591552734,117.04660034179688 144.79412841796875,67.05359649658203 C156.36712646484375,46.60960006713867 156.1699981689453,17.445999145507812 146.57899475097656,-11.802000045776367 C132.46099853515625,-54.856998443603516 108.83000183105469,-90.88899993896484 88.74600219726562,-112.44400024414062"/></g></g><g transform="matrix(0.9787720441818237,0.21728062629699707,-0.21902187168598175,0.9730581045150757,233.8743896484375,370.923828125)" opacity="1" style="display: block;"><g opacity="1" transform="matrix(1,0,0,1,-105.52300262451172,-19.874000549316406)"><path stroke-linecap="round" stroke-linejoin="round" fill-opacity="0" stroke="rgb(255,255,255)" stroke-opacity="1" stroke-width="8" d=" M-38.1870002746582,-25.44499969482422 C-39.448001861572266,-18.077999114990234 -37.731998443603516,-0.10199999809265137 -37.5629997253418,11.543999671936035"/></g></g><g transform="matrix(0.9655448794364929,0.2691158652305603,-0.27119365334510803,0.9600889086723328,254.52487182617188,240.921142578125)" opacity="1" style="display: block;"><g opacity="1" transform="matrix(1,0,0,1,0,0)"><g opacity="1" transform="matrix(1,0,0,1,0,0)"><path fill="rgb(255,212,39)" fill-opacity="1" d=" M73.24690246582031,-5.335585117340088 C55.94142150878906,9.797767639160156 -0.07931152731180191,26.18571662902832 5.022846221923828,35.58517074584961 C15.69012451171875,56.55107116699219 90.07170867919922,49.14730453491211 111.3942642211914,23.112014770507812 C139.1117401123047,-7.9133381843566895 100.19456481933594,-44.95643997192383 48.32694625854492,-25.321060180664062"/><path stroke-linecap="round" stroke-linejoin="round" fill-opacity="0" stroke="rgb(249,144,21)" stroke-opacity="1" stroke-width="10" d=" M73.24690246582031,-5.335585117340088 C55.94142150878906,9.797767639160156 -0.07931152731180191,26.18571662902832 5.022846221923828,35.58517074584961 C15.69012451171875,56.55107116699219 90.07170867919922,49.14730453491211 111.3942642211914,23.112014770507812 C139.1117401123047,-7.9133381843566895 100.19456481933594,-44.95643997192383 48.32694625854492,-25.321060180664062"/><path stroke-linecap="round" stroke-linejoin="round" fill-opacity="0" stroke="rgb(249,144,21)" stroke-opacity="1" stroke-width="10" d=" M73.24690246582031,-5.335585117340088 C55.94142150878906,9.797767639160156 -0.07931152731180191,26.18571662902832 5.022846221923828,35.58517074584961 C15.69012451171875,56.55107116699219 90.07170867919922,49.14730453491211 111.3942642211914,23.112014770507812 C139.1117401123047,-7.9133381843566895 100.19456481933594,-44.95643997192383 48.32694625854492,-25.321060180664062"/></g></g></g><g transform="matrix(1.0020536184310913,-0.04223547875881195,0.0419875867664814,0.9961722493171692,200.4388427734375,147.24716186523438)" opacity="1" style="display: block;"><g opacity="1" transform="matrix(1,0,0,1,0,0)"><path fill="rgb(255,212,39)" fill-opacity="1" d=" M-105.22100067138672,118.86000061035156 C-133.2010040283203,100.05000305175781 -150.76300048828125,72.0739974975586 -153.39599609375,37.85300064086914 C-158.99000549316406,-34.845001220703125 -95.81700134277344,-111.77899932861328 -11.095000267028809,-118.4020004272461 C73.6259994506836,-125.0250015258789 147.81300354003906,-58.83000183105469 153.40699768066406,13.868000030517578 C156.04800415039062,48.18199920654297 142.88900756835938,78.427001953125 118.43800354003906,101.1719970703125"/><path stroke-linecap="round" stroke-linejoin="round" fill-opacity="0" stroke="rgb(249,144,21)" stroke-opacity="1" stroke-width="10" d=" M-105.22100067138672,118.86000061035156 C-133.2010040283203,100.05000305175781 -150.76300048828125,72.0739974975586 -153.39599609375,37.85300064086914 C-158.99000549316406,-34.845001220703125 -95.81700134277344,-111.77899932861328 -11.095000267028809,-118.4020004272461 C73.6259994506836,-125.0250015258789 147.81300354003906,-58.83000183105469 153.40699768066406,13.868000030517578 C156.04800415039062,48.18199920654297 142.88900756835938,78.427001953125 118.43800354003906,101.1719970703125"/></g><g opacity="1" transform="matrix(1,0,0,1,106.01899719238281,-20.033000946044922)"><path stroke-linecap="round" stroke-linejoin="round" fill-opacity="0" stroke="rgb(251,237,32)" stroke-opacity="1" stroke-width="8" d=" M27.496000289916992,51.01599884033203 C29.04599952697754,12.569000244140625 2.2269999980926514,-35.20500183105469 -22.31100082397461,-48.6609992980957"/></g><g opacity="1" transform="matrix(1,0,0,1,-105.52300262451172,-19.874000549316406)"><path stroke-linecap="round" stroke-linejoin="round" fill-opacity="0" stroke="rgb(255,255,255)" stroke-opacity="1" stroke-width="8" d=" M20.575000762939453,-41.185001373291016 C-5.159999847412109,-23.156999588012695 -23.117000579833984,18.506000518798828 -23.73900032043457,41.972999572753906"/></g></g><g transform="matrix(-0.6056399941444397,0.19537393748760223,0.3091237545013428,0.9483727812767029,318.808349609375,103.48902893066406)" opacity="1" style="display: block;"><g opacity="1" transform="matrix(1,0,0,1,0,0)"><path fill="rgb(0,0,0)" fill-opacity="1" d=" M27.711999893188477,-1.972000002861023 C27.025999069213867,-1.5290000438690186 11.585000038146973,-10.038000106811523 -3.88100004196167,-8.086999893188477 C-19.347000122070312,-6.136000156402588 -28.981000900268555,5.535999774932861 -28.295000076293945,5.0929999351501465 C-27.608999252319336,4.650000095367432 -16.86199951171875,-7.738999843597412 -1.3960000276565552,-9.6899995803833 C14.069999694824219,-11.640999794006348 28.398000717163086,-2.4149999618530273 27.711999893188477,-1.972000002861023z"/><path stroke-linecap="round" stroke-linejoin="round" fill-opacity="0" stroke="rgb(0,0,0)" stroke-opacity="1" stroke-width="11.999998218927873" d=" M27.711999893188477,-1.972000002861023 C27.025999069213867,-1.5290000438690186 11.585000038146973,-10.038000106811523 -3.88100004196167,-8.086999893188477 C-19.347000122070312,-6.136000156402588 -28.981000900268555,5.535999774932861 -28.295000076293945,5.0929999351501465 C-27.608999252319336,4.650000095367432 -16.86199951171875,-7.738999843597412 -1.3960000276565552,-9.6899995803833 C14.069999694824219,-11.640999794006348 28.398000717163086,-2.4149999618530273 27.711999893188477,-1.972000002861023z"/></g><g opacity="1" transform="matrix(1,0,0,1,2.0810000896453857,-15.326000213623047)"><path fill="rgb(255,255,255)" fill-opacity="6.585662987390606e-8" d=" M9.652999877929688,7.565999984741211 C9.432999610900879,7.708000183105469 3.128000020980835,5.335000038146973 -3.0940001010894775,6.119999885559082 C-9.315999984741211,6.90500020980835 -14.38599967956543,8.934000015258789 -14.166000366210938,8.791999816894531 C-13.946000099182129,8.649999618530273 -8.517999649047852,6.390999794006348 -2.2960000038146973,5.605999946594238 C3.9260001182556152,4.821000099182129 9.873000144958496,7.423999786376953 9.652999877929688,7.565999984741211z"/></g></g><g transform="matrix(0.9854148030281067,-0.18602721393108368,0.18663349747657776,0.9795595407485962,268.7457275390625,142.98565673828125)" opacity="1" style="display: block;"><g opacity="1" transform="matrix(1,0,0,1,0,0)"><path fill="rgb(255,93,31)" fill-opacity="1" d=" M-56.316219329833984,12.253704071044922 C-52.99721908569336,-1.8312954902648926 -38.23878860473633,2.4876136779785156 -26.6077880859375,-3.7553863525390625 C-11.941787719726562,-11.627386093139648 -17.590166091918945,-31.275257110595703 -2.195167064666748,-31.94525718688965 C13.061833381652832,-32.609256744384766 10.819113731384277,-11.946455001831055 24.59911346435547,-9.359455108642578 C45.44111251831055,-5.4464545249938965 70.73463439941406,-2.8130226135253906 51.25001525878906,10.25003719329834 C58.82206726074219,24.059249877929688 29.572961807250977,31.377742767333984 -5.639128684997559,32.48798370361328 C-32.197418212890625,33.328983306884766 -60.03321838378906,28.028703689575195 -56.316219329833984,12.253704071044922z"/><path stroke-linecap="round" stroke-linejoin="round" fill-opacity="0" stroke="rgb(207,53,2)" stroke-opacity="1" stroke-width="8" d=" M-56.316219329833984,12.253704071044922 C-52.99721908569336,-1.8312954902648926 -38.23878860473633,2.4876136779785156 -26.6077880859375,-3.7553863525390625 C-11.941787719726562,-11.627386093139648 -17.590166091918945,-31.275257110595703 -2.195167064666748,-31.94525718688965 C13.061833381652832,-32.609256744384766 10.819113731384277,-11.946455001831055 24.59911346435547,-9.359455108642578 C45.44111251831055,-5.4464545249938965 70.73463439941406,-2.8130226135253906 51.25001525878906,10.25003719329834 C58.82206726074219,24.059249877929688 29.572961807250977,31.377742767333984 -5.639128684997559,32.48798370361328 C-32.197418212890625,33.328983306884766 -60.03321838378906,28.028703689575195 -56.316219329833984,12.253704071044922z"/></g><g opacity="1" transform="matrix(1,0,0,1,4.25600004196167,16.17099952697754)"><path stroke-linecap="round" stroke-linejoin="round" fill-opacity="0" stroke="rgb(124,8,8)" stroke-opacity="1" stroke-width="8" d=" M-43.44015884399414,0.5105152130126953 C-24.030467987060547,7.464515209197998 28.692840576171875,5.058582782745361 45.69287109375,-5.732417106628418"/></g><g opacity="0.33" transform="matrix(1,0,0,1,-14.994999885559082,-4.2779998779296875)"><path stroke-linecap="round" stroke-linejoin="round" fill-opacity="0" stroke="rgb(255,255,255)" stroke-opacity="1" stroke-width="8" d=" M6.530961990356445,-7.969257354736328 C1.5869618654251099,1.6317424774169922 -1.8250000476837158,5.951000213623047 -8.736000061035156,8.430999755859375"/></g></g><g transform="matrix(0.9854148030281067,-0.18602721393108368,0.18663349747657776,0.9795595407485962,188.406005859375,127.56944274902344)" opacity="1" style="display: block;"><g opacity="1" transform="matrix(1,0,0,1,0,0)"><path fill="rgb(0,0,0)" fill-opacity="1" d=" M27.2450008392334,1.625 C26.509000778198242,1.9780000448226929 12.26099967956543,-8.406999588012695 -3.3269999027252197,-8.418999671936035 C-18.915000915527344,-8.430999755859375 -29.94099998474121,1.9359999895095825 -29.204999923706055,1.5829999446868896 C-28.4689998626709,1.2300000190734863 -16.24799919128418,-9.708000183105469 -0.6600000262260437,-9.696000099182129 C14.928000450134277,-9.684000015258789 27.981000900268555,1.2719999551773071 27.2450008392334,1.625z"/><path stroke-linecap="round" stroke-linejoin="round" fill-opacity="0" stroke="rgb(0,0,0)" stroke-opacity="1" stroke-width="11.999998218927873" d=" M27.2450008392334,1.625 C26.509000778198242,1.9780000448226929 12.26099967956543,-8.406999588012695 -3.3269999027252197,-8.418999671936035 C-18.915000915527344,-8.430999755859375 -29.94099998474121,1.9359999895095825 -29.204999923706055,1.5829999446868896 C-28.4689998626709,1.2300000190734863 -16.24799919128418,-9.708000183105469 -0.6600000262260437,-9.696000099182129 C14.928000450134277,-9.684000015258789 27.981000900268555,1.2719999551773071 27.2450008392334,1.625z"/></g><g opacity="1" transform="matrix(1,0,0,1,2.0810000896453857,-15.326000213623047)"><path fill="rgb(255,255,255)" fill-opacity="6.585662987390606e-8" d=" M10.041999816894531,9.197999954223633 C9.805999755859375,9.310999870300293 3.8499999046325684,6.164000034332275 -2.4210000038146973,6.158999919891357 C-8.692000389099121,6.1539998054504395 -13.97700023651123,7.5279998779296875 -13.741000175476074,7.414999961853027 C-13.505000114440918,7.302000045776367 -7.835999965667725,5.74399995803833 -1.565000057220459,5.749000072479248 C4.705999851226807,5.754000186920166 10.277999877929688,9.085000038146973 10.041999816894531,9.197999954223633z"/></g></g><g transform="matrix(0.7988069653511047,0.07444628328084946,-0.07528559118509293,0.7942315936088562,242.9712371826172,298.4681701660156)" opacity="1" style="display: block;"><g opacity="1" transform="matrix(1,0,0,1,0,0)"><g opacity="1" transform="matrix(1,0,0,1,0,0)"><path fill="rgb(255,93,31)" fill-opacity="1" d=" M-143.41610717773438,149.82107543945312 C-153.17762756347656,167.57803344726562 -173.40316772460938,212.776123046875 -174.22515869140625,220.36212158203125 C-175.0471649169922,227.9481201171875 -141.31199645996094,254.7760009765625 -131.4429931640625,233.16000366210938 C-121.5739974975586,211.54400634765625 -99.46978759765625,174.12721252441406 -96.6428451538086,162.38427734375 C-88.81747436523438,130.00033569335938 -130.98117065429688,127.17920684814453 -143.41610717773438,149.82107543945312z"/><path stroke-linecap="round" stroke-linejoin="round" fill-opacity="0" stroke="rgb(207,53,2)" stroke-opacity="1" stroke-width="12.5" d=" M-143.41610717773438,149.82107543945312 C-153.17762756347656,167.57803344726562 -173.40316772460938,212.776123046875 -174.22515869140625,220.36212158203125 C-175.0471649169922,227.9481201171875 -141.31199645996094,254.7760009765625 -131.4429931640625,233.16000366210938 C-121.5739974975586,211.54400634765625 -99.46978759765625,174.12721252441406 -96.6428451538086,162.38427734375 C-88.81747436523438,130.00033569335938 -130.98117065429688,127.17920684814453 -143.41610717773438,149.82107543945312z"/><path stroke-linecap="round" stroke-linejoin="round" fill-opacity="0" stroke="rgb(207,53,2)" stroke-opacity="1" stroke-width="12.5" d=" M-143.41610717773438,149.82107543945312 C-153.17762756347656,167.57803344726562 -173.40316772460938,212.776123046875 -174.22515869140625,220.36212158203125 C-175.0471649169922,227.9481201171875 -141.31199645996094,254.7760009765625 -131.4429931640625,233.16000366210938 C-121.5739974975586,211.54400634765625 -99.46978759765625,174.12721252441406 -96.6428451538086,162.38427734375 C-88.81747436523438,130.00033569335938 -130.98117065429688,127.17920684814453 -143.41610717773438,149.82107543945312z"/></g></g></g><g transform="matrix(0.7988069653511047,0.07444628328084946,-0.07528559118509293,0.7942315936088562,242.9712371826172,298.4681701660156)" opacity="1" style="display: block;"><g opacity="1" transform="matrix(1,0,0,1,0,0)"><g opacity="1" transform="matrix(1,0,0,1,0,0)"><path fill="rgb(255,93,31)" fill-opacity="1" d=" M-133.5421905517578,192.65106201171875 C-136.43081665039062,183.77328491210938 -141.42169189453125,175.13577270507812 -147.00564575195312,167.83494567871094 C-160.9820556640625,149.7885284423828 -179.50682067871094,137.68609619140625 -195.8644561767578,143.7667236328125 C-218.77565002441406,152.28350830078125 -221.00706481933594,188.15280151367188 -207.08157348632812,212.32177734375 C-195.5163116455078,231.7914581298828 -176.38600158691406,251.00399780273438 -152.10499572753906,246.6529998779297 C-139.06100463867188,244.3159942626953 -132.44900512695312,236.25999450683594 -130.51199340820312,225.5590057373047"/><path stroke-linecap="round" stroke-linejoin="round" fill-opacity="0" stroke="rgb(207,53,2)" stroke-opacity="1" stroke-width="12.5" d=" M-133.5421905517578,192.65106201171875 C-136.43081665039062,183.77328491210938 -141.42169189453125,175.13577270507812 -147.00564575195312,167.83494567871094 C-160.9820556640625,149.7885284423828 -179.50682067871094,137.68609619140625 -195.8644561767578,143.7667236328125 C-218.77565002441406,152.28350830078125 -221.00706481933594,188.15280151367188 -207.08157348632812,212.32177734375 C-195.5163116455078,231.7914581298828 -176.38600158691406,251.00399780273438 -152.10499572753906,246.6529998779297 C-139.06100463867188,244.3159942626953 -132.44900512695312,236.25999450683594 -130.51199340820312,225.5590057373047"/><path stroke-linecap="round" stroke-linejoin="round" fill-opacity="0" stroke="rgb(207,53,2)" stroke-opacity="1" stroke-width="12.5" d=" M-133.5421905517578,192.65106201171875 C-136.43081665039062,183.77328491210938 -141.42169189453125,175.13577270507812 -147.00564575195312,167.83494567871094 C-160.9820556640625,149.7885284423828 -179.50682067871094,137.68609619140625 -195.8644561767578,143.7667236328125 C-218.77565002441406,152.28350830078125 -221.00706481933594,188.15280151367188 -207.08157348632812,212.32177734375 C-195.5163116455078,231.7914581298828 -176.38600158691406,251.00399780273438 -152.10499572753906,246.6529998779297 C-139.06100463867188,244.3159942626953 -132.44900512695312,236.25999450683594 -130.51199340820312,225.5590057373047"/></g><g opacity="1" transform="matrix(1,0,0,1,0,0)"><path stroke-linecap="round" stroke-linejoin="round" fill-opacity="0" stroke="rgb(207,53,2)" stroke-opacity="1" stroke-width="12.5" d=" M-202.50799560546875,219.40499877929688 C-190.76400756835938,236.13499450683594 -173.41900634765625,250.4720001220703 -152.10499572753906,246.6529998779297 C-139.06100463867188,244.3159942626953 -132.44900512695312,236.25999450683594 -130.51199340820312,225.5590057373047"/><path stroke-linecap="round" stroke-linejoin="round" fill-opacity="0" stroke="rgb(207,53,2)" stroke-opacity="1" stroke-width="12.5" d=" M-202.50799560546875,219.40499877929688 C-190.76400756835938,236.13499450683594 -173.41900634765625,250.4720001220703 -152.10499572753906,246.6529998779297 C-139.06100463867188,244.3159942626953 -132.44900512695312,236.25999450683594 -130.51199340820312,225.5590057373047"/></g><g opacity="1" transform="matrix(1,0,0,1,0,0)"><path stroke-linecap="round" stroke-linejoin="round" fill-opacity="0" stroke="rgb(207,53,2)" stroke-opacity="1" stroke-width="12.5" d=" M-130.51199340820312,225.5590057373047 C-132.44900512695312,236.25999450683594 -139.06100463867188,244.3159942626953 -152.10499572753906,246.6529998779297 C-176.38600158691406,251.00399780273438 -195.5163116455078,231.7914581298828 -207.08157348632812,212.32177734375 C-221.00706481933594,188.15280151367188 -218.77565002441406,152.28350830078125 -195.8644561767578,143.7667236328125 C-179.50682067871094,137.68609619140625 -160.9820556640625,149.7885284423828 -147.00564575195312,167.83494567871094 C-141.42169189453125,175.13577270507812 -136.43081665039062,183.77328491210938 -133.5421905517578,192.65106201171875"/><path stroke-linecap="round" stroke-linejoin="round" fill-opacity="0" stroke="rgb(207,53,2)" stroke-opacity="1" stroke-width="12.5" d=" M-130.51199340820312,225.5590057373047 C-132.44900512695312,236.25999450683594 -139.06100463867188,244.3159942626953 -152.10499572753906,246.6529998779297 C-176.38600158691406,251.00399780273438 -195.5163116455078,231.7914581298828 -207.08157348632812,212.32177734375 C-221.00706481933594,188.15280151367188 -218.77565002441406,152.28350830078125 -195.8644561767578,143.7667236328125 C-179.50682067871094,137.68609619140625 -160.9820556640625,149.7885284423828 -147.00564575195312,167.83494567871094 C-141.42169189453125,175.13577270507812 -136.43081665039062,183.77328491210938 -133.5421905517578,192.65106201171875"/></g></g></g><g transform="matrix(0.9401799440383911,0.34684014320373535,-0.3492751121520996,0.9347697496414185,207.46658325195312,489.59979248046875)" opacity="1" style="display: block;"><g opacity="1" transform="matrix(1,0,0,1,-105.52300262451172,-19.874000549316406)"><path stroke-linecap="round" stroke-linejoin="round" fill-opacity="0" stroke="rgb(255,146,105)" stroke-opacity="1" stroke-width="8" d=" M-38.27399826049805,-10.901000022888184 C-47.06399917602539,-10.050000190734863 -53.21099853515625,-1.1180000305175781 -46.38600158691406,14.125"/></g></g><g transform="matrix(0.7915024161338806,-0.035208120942115784,0.036356788128614426,0.8168176412582397,241.9494171142578,227.22303771972656)" opacity="1" style="display: block;"><g opacity="1" transform="matrix(1,0,0,1,0,0)"><g opacity="1" transform="matrix(1,0,0,1,0,0)"><path fill="url(#__lottie_element_681)" fill-opacity="1" d=" M26.190000534057617,169.47900390625 C-62.6510009765625,149.04400634765625 -106.74199676513672,58.12200164794922 -79.60900115966797,16.273000717163086 C-52.47600173950195,-25.576000213623047 -6.649726390838623,-5.176393985748291 4.38727331161499,9.539606094360352 C31.060274124145508,-41.50639343261719 75.72529602050781,-22.46584129333496 90.44129180908203,6.966159343719482 C105.15729522705078,36.39815902709961 108.0479965209961,111.53399658203125 26.190000534057617,169.47900390625z"/><path stroke-linecap="round" stroke-linejoin="round" fill-opacity="0" stroke="rgb(178,0,0)" stroke-opacity="1" stroke-width="7" d=" M26.190000534057617,169.47900390625 C-62.6510009765625,149.04400634765625 -106.74199676513672,58.12200164794922 -79.60900115966797,16.273000717163086 C-52.47600173950195,-25.576000213623047 -6.649726390838623,-5.176393985748291 4.38727331161499,9.539606094360352 C31.060274124145508,-41.50639343261719 75.72529602050781,-22.46584129333496 90.44129180908203,6.966159343719482 C105.15729522705078,36.39815902709961 108.0479965209961,111.53399658203125 26.190000534057617,169.47900390625z"/><path stroke-linecap="round" stroke-linejoin="round" fill-opacity="0" stroke="rgb(178,0,0)" stroke-opacity="1" stroke-width="10" d=" M26.190000534057617,169.47900390625 C-62.6510009765625,149.04400634765625 -106.74199676513672,58.12200164794922 -79.60900115966797,16.273000717163086 C-52.47600173950195,-25.576000213623047 -6.649726390838623,-5.176393985748291 4.38727331161499,9.539606094360352 C31.060274124145508,-41.50639343261719 75.72529602050781,-22.46584129333496 90.44129180908203,6.966159343719482 C105.15729522705078,36.39815902709961 108.0479965209961,111.53399658203125 26.190000534057617,169.47900390625z"/></g><g opacity="1" transform="matrix(1,0,0,1,0,0)"><path stroke-linecap="round" stroke-linejoin="round" fill-opacity="0" stroke="rgb(154,20,20)" stroke-opacity="1" stroke-width="7" d=" M67.4229965209961,-16.841999053955078 C77.25,-11.555999755859375 85.5199966430664,-2.875999927520752 90.44100189208984,6.966000080108643 C105.15729522705078,36.39815902709961 108.0479965209961,111.53399658203125 26.190000534057617,169.47900390625 C26.190000534057617,169.47900390625 26.190000534057617,169.47900390625 26.190000534057617,169.47900390625 C-4.938000202178955,162.31900024414062 -30.57200050354004,146.50599670410156 -49.57400131225586,127.18199920654297"/><path stroke-linecap="round" stroke-linejoin="round" fill-opacity="0" stroke="rgb(154,20,20)" stroke-opacity="1" stroke-width="10" d=" M67.4229965209961,-16.841999053955078 C77.25,-11.555999755859375 85.5199966430664,-2.875999927520752 90.44100189208984,6.966000080108643 C105.15729522705078,36.39815902709961 108.0479965209961,111.53399658203125 26.190000534057617,169.47900390625 C26.190000534057617,169.47900390625 26.190000534057617,169.47900390625 26.190000534057617,169.47900390625 C-4.938000202178955,162.31900024414062 -30.57200050354004,146.50599670410156 -49.57400131225586,127.18199920654297"/></g><g opacity="0.5" transform="matrix(1,0,0,1,0,0)"><path fill="rgb(154,20,20)" fill-opacity="1" d=" M-32.16999816894531,139.1280059814453 C-5.168000221252441,140.0850067138672 16.417407989501953,126.86869049072266 45.25075912475586,112.75291442871094 C84.16239166259766,96.98587799072266 88.56999969482422,80.58599853515625 95.2040023803711,74.70700073242188 C99.98899841308594,66.20899963378906 102.72699737548828,57.35200119018555 98.64299774169922,34.37699890136719 C75.55000305175781,33.81399917602539 26.202999114990234,51.73699951171875 -13.406999588012695,67.9229965209961 C-45.60599899291992,81.08100128173828 -71.37100219726562,93.08999633789062 -71.37100219726562,93.08999633789062 C-71.37100219726562,93.08999633789062 -60.76100158691406,124.3219985961914 -32.16999816894531,139.1280059814453z"/></g><g opacity="0.5" transform="matrix(1,0,0,1,0,0)"><path stroke-linecap="round" stroke-linejoin="round" fill-opacity="0" stroke="rgb(154,20,20)" stroke-opacity="1" stroke-width="5" d=" M-30.48900032043457,-7.921999931335449 C-60.76218795776367,-4.394045829772949 -75.27740478515625,16.579833984375 -75.37224578857422,43.469581604003906 C-75.5215072631836,85.80397033691406 -39.928001403808594,142.802001953125 26.190000534057617,169.47900390625"/></g><g opacity="0.22" transform="matrix(1,0,0,1,0,0)"><path stroke-linecap="round" stroke-linejoin="round" fill-opacity="0" stroke="rgb(255,255,255)" stroke-opacity="1" stroke-width="10" d=" M-64.18762969970703,48.82371139526367 C-67.01362609863281,32.221710205078125 -66.30662536621094,14.560583114624023 -47.938629150390625,4.669583320617676"/></g></g><g opacity="1" transform="matrix(1,0,0,1,0,0)"><path fill="url(#__lottie_element_682)" fill-opacity="1" d=" M-10.835984230041504,6.792605876922607 C-40.21198272705078,-6.474393844604492 -52.382999420166016,-1.194000005722046 -62.20899963378906,17.617000579833984 C-72.03500366210938,36.428001403808594 -41.926944732666016,54.64370346069336 14.561054229736328,31.16970443725586 C68.904052734375,8.5877046585083 78.51399993896484,13.232999801635742 76.26799774169922,1.440999984741211 C74.02200317382812,-10.35099983215332 52.53996276855469,-25.099552154541016 27.94196319580078,-8.321553230285645 C12.427962303161621,2.2604470252990723 13.73973560333252,13.057930946350098 6.159735679626465,13.899930953979492 C-1.4202642440795898,14.741930961608887 -2.132983922958374,10.72360610961914 -10.835984230041504,6.792605876922607z"/></g></g><g transform="matrix(0.9568039774894714,-0.2992797791957855,0.3005845546722412,0.9511170387268066,248.3513946533203,207.46617126464844)" opacity="1" style="display: block;"><g opacity="1" transform="matrix(1,0,0,1,0,0)"><g opacity="1" transform="matrix(1,0,0,1,0,0)"><path fill="rgb(255,212,39)" fill-opacity="1" d=" M-135.94139099121094,109.82395935058594 C20.35555648803711,143.54067993164062 60.92506408691406,82.33525085449219 54.75569534301758,77.25170135498047 C43.28976821899414,68.56478881835938 -45.927284240722656,74.18428802490234 -107.9700698852539,36.6417350769043 C-142.36492919921875,15.981841087341309 -162.27294921875,103.36168670654297 -135.94139099121094,109.82395935058594z"/></g></g></g><g transform="matrix(0.9568039774894714,-0.2992797791957855,0.3005845546722412,0.9511170387268066,248.3513946533203,207.46617126464844)" opacity="1" style="display: block;"><g opacity="1" transform="matrix(1,0,0,1,0,0)"><g opacity="1" transform="matrix(1,0,0,1,0,0)"><path stroke-linecap="round" stroke-linejoin="round" fill-opacity="0" stroke="rgb(249,144,21)" stroke-opacity="1" stroke-width="10" d=" M-135.94139099121094,109.82395935058594 C20.35555648803711,143.54067993164062 60.92506408691406,82.33525085449219 54.75569534301758,77.25170135498047 C43.28976821899414,68.56478881835938 -45.927284240722656,74.18428802490234 -107.9700698852539,36.6417350769043"/><path stroke-linecap="round" stroke-linejoin="round" fill-opacity="0" stroke="rgb(249,144,21)" stroke-opacity="1" stroke-width="10" d=" M-135.94139099121094,109.82395935058594 C20.35555648803711,143.54067993164062 60.92506408691406,82.33525085449219 54.75569534301758,77.25170135498047 C43.28976821899414,68.56478881835938 -45.927284240722656,74.18428802490234 -107.9700698852539,36.6417350769043"/><path stroke-linecap="round" stroke-linejoin="round" fill-opacity="0" stroke="rgb(249,144,21)" stroke-opacity="1" stroke-width="10" d=" M-135.94139099121094,109.82395935058594 C20.35555648803711,143.54067993164062 60.92506408691406,82.33525085449219 54.75569534301758,77.25170135498047 C43.28976821899414,68.56478881835938 -45.927284240722656,74.18428802490234 -107.9700698852539,36.6417350769043"/></g></g></g><g transform="matrix(1.0020780563354492,-0.04293566942214966,0.04271736741065979,0.9960874319076538,304.77227783203125,323.04217529296875)" opacity="1" style="display: block;"><g opacity="1" transform="matrix(1,0,0,1,-105.52300262451172,-19.874000549316406)"><path stroke-linecap="round" stroke-linejoin="round" fill-opacity="0" stroke="rgb(255,255,255)" stroke-opacity="1" stroke-width="8" d=" M16.566999435424805,-12.722999572753906 C1.6260000467300415,-11.746999740600586 -20.01099967956543,-12.178000450134277 -36.21799850463867,-17.21500015258789"/></g></g><g transform="matrix(0.9655448794364929,0.2691158652305603,-0.27119365334510803,0.9600889086723328,254.52487182617188,240.921142578125)" opacity="1" style="display: block;"><g opacity="1" transform="matrix(1,0,0,1,0,0)"><g opacity="1" transform="matrix(1,0,0,1,0,0)"><path fill="rgb(255,212,39)" fill-opacity="1" d=" M73.24690246582031,-5.335585117340088 C55.94142150878906,9.797767639160156 -0.07931152731180191,26.18571662902832 5.022846221923828,35.58517074584961 C15.69012451171875,56.55107116699219 90.07170867919922,49.14730453491211 111.3942642211914,23.112014770507812 C125.01000213623047,7.870999813079834 122.5459976196289,-8.821999549865723 110.36599731445312,-19.53499984741211"/><path stroke-linecap="round" stroke-linejoin="round" fill-opacity="0" stroke="rgb(249,144,21)" stroke-opacity="1" stroke-width="10" d=" M73.24690246582031,-5.335585117340088 C55.94142150878906,9.797767639160156 -0.07931152731180191,26.18571662902832 5.022846221923828,35.58517074584961 C15.69012451171875,56.55107116699219 90.07170867919922,49.14730453491211 111.3942642211914,23.112014770507812 C125.01000213623047,7.870999813079834 122.5459976196289,-8.821999549865723 110.36599731445312,-19.53499984741211"/><path stroke-linecap="round" stroke-linejoin="round" fill-opacity="0" stroke="rgb(249,144,21)" stroke-opacity="1" stroke-width="10" d=" M73.24690246582031,-5.335585117340088 C55.94142150878906,9.797767639160156 -0.07931152731180191,26.18571662902832 5.022846221923828,35.58517074584961 C15.69012451171875,56.55107116699219 90.07170867919922,49.14730453491211 111.3942642211914,23.112014770507812 C125.01000213623047,7.870999813079834 122.5459976196289,-8.821999549865723 110.36599731445312,-19.53499984741211"/></g></g></g><g transform="matrix(0.8625325560569763,0.5084609389305115,-0.5117983818054199,0.8576626181602478,391.1020812988281,387.6647033691406)" opacity="1" style="display: block;"><g opacity="1" transform="matrix(1,0,0,1,-105.52300262451172,-19.874000549316406)"><path stroke-linecap="round" stroke-linejoin="round" fill-opacity="0" stroke="rgb(255,255,255)" stroke-opacity="1" stroke-width="8" d=" M-18.753999710083008,-39.481998443603516 C-27.749000549316406,-32.479000091552734 -39.14500045776367,-24.344999313354492 -49.54100036621094,-17.363000869750977"/></g></g></g></svg>